<svg width="35" height="37" viewBox="0 0 35 37" fill="none" xmlns="http://www.w3.org/2000/svg">
	<path d="M31.2332 16.8333V26.3333C31.2332 27.2173 30.882 28.0652 30.2569 28.6903C29.6318 29.3154 28.7839 29.6666 27.8999 29.6666H10.8665C9.98248 29.6666 9.13464 29.3154 8.50951 28.6903C7.88439 28.0652 7.5332 27.2173 7.5332 26.3333V4.66659C7.5332 3.78253 7.88439 2.93468 8.50951 2.30956C9.13464 1.68444 9.98248 1.33325 10.8665 1.33325H20.6999" stroke="#6A983C" stroke-width="2.5" stroke-linecap="round" stroke-linejoin="bevel" />
	<path d="M25.883 30.5165V31.5998C25.883 32.4839 25.5318 33.3317 24.9067 33.9568C24.2816 34.5819 23.4338 34.9331 22.5497 34.9331H5.53304C4.64899 34.9331 3.80114 34.5819 3.17602 33.9568C2.5509 33.3317 2.19971 32.4839 2.19971 31.5998V8.38314C2.19971 7.49908 2.5509 6.65124 3.17602 6.02612C3.80114 5.40099 4.64899 5.0498 5.53304 5.0498H7.01637" stroke="#6A983C" stroke-width="2.5" stroke-linecap="round" stroke-linejoin="bevel" />
	<path d="M30.1664 1.74983C30.0114 1.59362 29.8271 1.46963 29.624 1.38501C29.4209 1.3004 29.2031 1.25684 28.983 1.25684C28.763 1.25684 28.5452 1.3004 28.3421 1.38501C28.139 1.46963 27.9547 1.59362 27.7997 1.74983L17.7997 11.7498L17.633 16.7498C17.6304 16.8001 17.6387 16.8504 17.6572 16.8972C17.6758 16.944 17.7043 16.9863 17.7406 17.0211C17.777 17.0559 17.8205 17.0824 17.8681 17.0989C17.9157 17.1154 17.9663 17.1214 18.0164 17.1165L23.0164 16.9498L33.0164 6.94983C33.3048 6.63862 33.4636 6.22914 33.4605 5.80486C33.4574 5.38059 33.2926 4.97347 32.9997 4.6665L30.1664 1.74983Z" stroke="#6A983C" stroke-width="2.5" stroke-linecap="round" stroke-linejoin="round" />
</svg>