<svg width="16" height="15" viewBox="0 0 16 15" fill="none" xmlns="http://www.w3.org/2000/svg">
	<path fill-rule="evenodd" clip-rule="evenodd" d="M8.70094 2.76001C9.33746 2.12349 10.2008 1.7659 11.1009 1.7659C12.0011 1.7659 12.8644 2.12349 13.5009 2.76001C14.1375 3.39653 14.4951 4.25984 14.4951 5.16001C14.4951 6.06019 14.1375 6.92349 13.5009 7.56001L12.6276 8.43334L7.8276 13.2333L3.0276 8.43334L2.15427 7.56001C1.51775 6.92349 1.16016 6.06019 1.16016 5.16001C1.16016 4.25984 1.51775 3.39653 2.15427 2.76001C2.79079 2.12349 3.65409 1.7659 4.55427 1.7659C5.45444 1.7659 6.31775 2.12349 6.95427 2.76001L7.8276 3.63334L8.70094 2.76001Z" stroke="#E6704B" stroke-width="2" stroke-linecap="round" stroke-linejoin="round" />
</svg>