<svg width="14" height="14" viewBox="0 0 14 14" fill="none" xmlns="http://www.w3.org/2000/svg">
	<path fill-rule="evenodd" clip-rule="evenodd" d="M14 14H10.9567V9.01681C10.9567 7.71246 10.4806 6.82202 9.43381 6.82202C8.6331 6.82202 8.18782 7.42291 7.98056 8.00202C7.90284 8.20988 7.91498 8.49943 7.91498 8.78898V14H4.9C4.9 14 4.93886 5.17276 4.9 4.37036H7.91498V5.88166C8.0931 5.22087 9.05653 4.27778 10.594 4.27778C12.5014 4.27778 14 5.66291 14 8.64557V14ZM1.7413 3.11111H1.72043C0.67669 3.11111 0 2.42567 0 1.55682C0 0.671074 0.696695 0 1.76131 0C2.82505 0 3.47913 0.669383 3.5 1.55429C3.5 2.42313 2.82505 3.11111 1.7413 3.11111ZM0.35 4.66667H3.15V14H0.35V4.66667Z" fill="#151515" />
</svg>