<svg width="30" height="30" viewBox="0 0 30 30" fill="none" xmlns="http://www.w3.org/2000/svg">
	<path fill-rule="evenodd" clip-rule="evenodd" d="M27.6335 1.93354L1.88355 11.6669C1.82346 11.6952 1.77267 11.74 1.73709 11.796C1.70151 11.8521 1.68262 11.9171 1.68262 11.9835C1.68262 12.0499 1.70151 12.115 1.73709 12.1711C1.77267 12.2271 1.82346 12.2719 1.88355 12.3002L12.9002 17.0169C12.9415 17.0336 12.9789 17.0585 13.0104 17.09C13.0419 17.1215 13.0668 17.159 13.0835 17.2002L17.8002 28.2169C17.8285 28.277 17.8733 28.3278 17.9294 28.3633C17.9854 28.3989 18.0505 28.4178 18.1169 28.4178C18.1833 28.4178 18.2483 28.3989 18.3044 28.3633C18.3605 28.3278 18.4053 28.277 18.4335 28.2169L28.0669 2.36687C28.0911 2.3063 28.0971 2.23994 28.084 2.17602C28.0708 2.1121 28.0393 2.05344 27.9931 2.0073C27.947 1.96116 27.8883 1.92958 27.8244 1.91647C27.7605 1.90336 27.6941 1.90929 27.6335 1.93354V1.93354Z" stroke="#151515" stroke-width="2.5" stroke-linecap="round" stroke-linejoin="round" />
	<path d="M28.3338 1.66675L13.0171 16.9834" stroke="#151515" stroke-width="2.5" stroke-linecap="round" stroke-linejoin="round" />
</svg>