<svg viewBox="0 0 36 26" fill="none" xmlns="http://www.w3.org/2000/svg" id="envelope">
	<path d="M31.3334 1.33325H4.66671C2.82576 1.33325 1.33337 2.82564 1.33337 4.66659V21.3333C1.33337 23.1742 2.82576 24.6666 4.66671 24.6666H31.3334C33.1743 24.6666 34.6667 23.1742 34.6667 21.3333V4.66659C34.6667 2.82564 33.1743 1.33325 31.3334 1.33325Z" style="stroke: var(--color)" stroke-width="2.5" stroke-linecap="round" stroke-linejoin="bevel" />
	<path d="M4 3L17.0167 16.0167C17.3262 16.3266 17.6939 16.5725 18.0985 16.7402C18.5032 16.9079 18.9369 16.9943 19.375 16.9943C19.8131 16.9943 20.2468 16.9079 20.6515 16.7402C21.0561 16.5725 21.4238 16.3266 21.7333 16.0167L34.7 3" style="stroke: var(--color)" stroke-width="2.5" stroke-linecap="round" stroke-linejoin="round" />
</svg>