<svg viewBox="0 0 32 33" fill="none" xmlns="http://www.w3.org/2000/svg" id="phone">
	<path d="M2.25009 26.0167L6.23343 30C6.54386 30.3175 6.91461 30.5697 7.32388 30.742C7.73316 30.9142 8.17272 31.0029 8.61676 31.0029C9.0608 31.0029 9.50036 30.9142 9.90964 30.742C10.3189 30.5697 10.6897 30.3175 11.0001 30L13.2668 27.7333C13.5767 27.4237 13.8225 27.0561 13.9903 26.6515C14.158 26.2468 14.2444 25.813 14.2444 25.375C14.2444 24.9369 14.158 24.5032 13.9903 24.0985C13.8225 23.6939 13.5767 23.3262 13.2668 23.0167L11.7834 21.5167C14.0976 17.6548 17.3257 14.421 21.1834 12.1V12.1L22.6668 13.6C22.9763 13.9099 23.344 14.1558 23.7486 14.3235C24.1533 14.4913 24.587 14.5776 25.0251 14.5776C25.4631 14.5776 25.8969 14.4913 26.3016 14.3235C26.7062 14.1558 27.0738 13.9099 27.3834 13.6L29.6168 11.3833C29.9267 11.0737 30.1725 10.7061 30.3403 10.3015C30.508 9.8968 30.5944 9.46304 30.5944 9.02499C30.5944 8.58694 30.508 8.15318 30.3403 7.74852C30.1725 7.34386 29.9267 6.97623 29.6168 6.66666L25.6334 2.64999C25.3622 2.37699 25.0049 2.20626 24.6221 2.16676C24.2393 2.12727 23.8547 2.22145 23.5334 2.43332V2.43332C15.0109 8.08959 7.70637 15.3941 2.05009 23.9167V23.9167C1.83611 24.2361 1.73913 24.6196 1.77558 25.0023C1.81203 25.385 1.97967 25.7434 2.25009 26.0167V26.0167Z" style="stroke: var(--color)" stroke-width="2.5" stroke-linecap="round" stroke-linejoin="round" />
</svg>